<?xml version="1.0" encoding="UTF-8"?>
<svg version="1.1" xmlns="http://www.w3.org/2000/svg" width="500" height="500">
<path d="M0 0 C4.74163992 3.54844826 7.94034011 7.7086832 9.78515625 13.3359375 C9.98151359 15.98094678 10.07900198 18.52062305 10.07568359 21.16455078 C10.08240082 21.93765091 10.08911804 22.71075104 10.09603882 23.50727844 C10.11499622 26.05700154 10.11894256 28.60646084 10.12109375 31.15625 C10.12752576 32.93879299 10.13425442 34.72133493 10.14126587 36.50387573 C10.1532348 40.24121545 10.15694734 43.97846279 10.15576172 47.71582031 C10.15555913 52.48022348 10.1828006 57.24402614 10.21730614 62.00828743 C10.23966791 65.69229797 10.24359635 69.37616646 10.24254227 73.06023788 C10.24488662 74.81513401 10.25364367 76.57003476 10.269207 78.32486343 C10.38825076 93.14075547 8.44987676 104.03010538 -1.95703125 115.20703125 C-10.81496436 123.75254763 -23.42134196 126.48661263 -34.9453125 129.79296875 C-36.38771666 130.21259178 -37.82992596 130.63288512 -39.2719574 131.05378723 C-42.36202787 131.95443499 -45.45324816 132.8509726 -48.54547119 133.74420166 C-53.48925188 135.17248271 -58.43022132 136.6103129 -63.37060547 138.05029297 C-64.21323441 138.29588329 -65.05586334 138.54147362 -65.92402649 138.79450607 C-67.64892337 139.29726944 -69.37380986 139.80006845 -71.09868622 140.30290222 C-73.74067915 141.07279655 -76.38292268 141.84182595 -79.02520752 142.61071777 C-97.78163329 148.07121147 -116.50964497 153.62686729 -135.23644257 159.18795395 C-142.85501464 161.45000673 -150.47434584 163.70950185 -158.09375 165.96875 C-158.89103516 166.20517653 -159.68832031 166.44160305 -160.50976562 166.68519402 C-179.39687228 172.28527015 -198.29863302 177.8349372 -217.21484375 183.3359375 C-208.35109549 188.84010585 -199.41327364 194.20122435 -190.40234375 199.4609375 C-189.12688467 200.20691421 -187.85149537 200.95301026 -186.57617188 201.69921875 C-177.83255426 206.81358926 -169.08202286 211.91614782 -160.33056641 217.01708984 C-153.57429791 220.95609001 -146.82325925 224.90391442 -140.0769043 228.85986328 C-137.56864443 230.33042907 -135.05828711 231.79731147 -132.54614258 233.26123047 C-127.28164438 236.3330347 -122.03508759 239.41963702 -116.87890625 242.671875 C-116.10667725 243.15172852 -115.33444824 243.63158203 -114.53881836 244.12597656 C-113.17665436 244.97711503 -111.82454365 245.84471399 -110.48657227 246.73339844 C-105.5654241 249.78387981 -102.66013119 249.50806834 -97.21484375 248.3359375 C-96.22484375 248.0059375 -95.23484375 247.6759375 -94.21484375 247.3359375 C-87.08528183 246.63334739 -81.07041024 246.94105937 -75.21484375 251.3359375 C-70.75287666 255.61902841 -67.41481256 259.63697465 -66.94741821 265.94535828 C-66.92947659 267.41620102 -66.92255507 268.88720319 -66.92431641 270.3581543 C-66.91759918 271.1635817 -66.91088196 271.96900909 -66.90396118 272.79884338 C-66.88496854 275.46101054 -66.88105582 278.12292556 -66.87890625 280.78515625 C-66.87247726 282.64118045 -66.86574882 284.49720363 -66.85873413 286.35322571 C-66.84675682 290.24616849 -66.84305358 294.13902252 -66.84423828 298.03198242 C-66.84444105 303.00398623 -66.81718455 307.97541575 -66.78269386 312.94728374 C-66.76037564 316.78305131 -66.75640231 320.618682 -66.75745773 324.45450783 C-66.75510743 326.28641545 -66.74631624 328.11832716 -66.730793 329.95017052 C-66.59079246 348.18433218 -66.59079246 348.18433218 -71.21484375 355.3359375 C-71.81296875 356.3671875 -72.41109375 357.3984375 -73.02734375 358.4609375 C-82.50600089 370.91860117 -95.38116413 375.051451 -110.01171875 379.2578125 C-111.56799987 379.71455143 -113.1239758 380.17233131 -114.67967224 380.63105774 C-118.01806473 381.61312146 -121.3584152 382.5880873 -124.70053101 383.55740356 C-130.07489349 385.11618634 -135.44458035 386.69067261 -140.8137207 388.26733398 C-147.45025538 390.21503644 -154.08789413 392.15889132 -160.72697544 394.09789562 C-172.95788575 397.67030923 -185.18027119 401.27097852 -197.3984375 404.88671875 C-198.30603695 405.15527302 -199.2136364 405.42382729 -200.14873886 405.70051956 C-203.81368024 406.7850049 -207.47858742 407.86960568 -211.1434269 408.95443535 C-221.30526162 411.96228594 -231.4689386 414.96389223 -241.6328125 417.96484375 C-242.54206608 418.233325 -243.45131966 418.50180626 -244.38812637 418.77842331 C-265.23826443 424.93486623 -286.09078305 431.08323311 -306.94381714 437.2298584 C-326.11400943 442.88047855 -345.28276853 448.53591734 -364.44921875 454.19921875 C-365.9220356 454.63440386 -365.9220356 454.63440386 -367.42460632 455.07838058 C-376.11929667 457.64753216 -384.81391147 460.21693925 -393.50830078 462.78710938 C-394.85198605 463.18430144 -394.85198605 463.18430144 -396.22281647 463.58951759 C-398.00421121 464.11614565 -399.78557844 464.6428668 -401.56691742 465.16968346 C-405.86579974 466.44083273 -410.16522026 467.71009432 -414.46594238 468.9750061 C-421.84624469 471.14715537 -429.22235879 473.32920191 -436.57891464 475.58068943 C-439.70341309 476.53590202 -442.83084464 477.48128596 -445.95859528 478.42578697 C-447.40532551 478.86573685 -448.85058639 479.31055495 -450.29415131 479.76078224 C-467.3337535 485.07335763 -467.3337535 485.07335763 -476.203125 482.453125 C-483.1260794 478.75312584 -487.75114047 475.0830035 -490.21484375 467.3359375 C-490.41139048 464.65552952 -490.5086839 462.07905939 -490.50537109 459.3996582 C-490.51544693 458.22296822 -490.51544693 458.22296822 -490.52572632 457.02250671 C-490.54468352 454.43551245 -490.54862986 451.84877812 -490.55078125 449.26171875 C-490.55721257 447.4543599 -490.56394118 445.64700208 -490.57095337 443.83964539 C-490.58292174 440.05103139 -490.58663483 436.26250852 -490.58544922 432.47387695 C-490.58524647 427.639877 -490.61250464 422.80646787 -490.64699364 417.97260761 C-490.66933315 414.23802557 -490.67328455 410.50358388 -490.67222977 406.76894188 C-490.67457681 404.98809976 -490.68334936 403.20725325 -490.6988945 401.42647743 C-490.8154351 386.69231552 -488.78578316 376.56026691 -478.47265625 365.4609375 C-470.03774873 357.34102653 -458.24683113 354.54129863 -447.26171875 351.38671875 C-445.33487212 350.82368966 -443.4080261 350.26065848 -441.48120022 349.6975584 C-439.41379392 349.09478436 -437.34543709 348.49538353 -435.27676392 347.89697266 C-430.86499755 346.62059805 -426.45605979 345.33464279 -422.04760742 344.046875 C-420.49705771 343.59401558 -418.9465053 343.14116536 -417.39595032 342.68832397 C-416.22095695 342.34514696 -416.22095695 342.34514696 -415.02222633 341.99503708 C-412.58668638 341.284065 -410.15088014 340.57401167 -407.7150116 339.86416626 C-394.99961703 336.15750779 -382.29464806 332.41616468 -369.59375 328.66015625 C-368.63675831 328.37716486 -367.67976662 328.09417347 -366.69377518 327.80260658 C-360.91263157 326.09288247 -355.13172855 324.38234605 -349.35090637 322.67153549 C-341.26033062 320.27723093 -333.16945726 317.88393432 -325.078125 315.4921875 C-323.79646013 315.1133117 -323.79646013 315.1133117 -322.48890305 314.72678185 C-302.74231403 308.89081696 -282.97987826 303.10907419 -263.21484375 297.3359375 C-266.17496309 294.94039252 -269.01966556 292.73755182 -272.34765625 290.8828125 C-273.13938232 290.43703857 -273.9311084 289.99126465 -274.74682617 289.53198242 C-275.60252197 289.0547876 -276.45821777 288.57759277 -277.33984375 288.0859375 C-285.7578211 283.33583028 -294.09841706 278.47010088 -302.40234375 273.5234375 C-311.30110655 268.22596042 -320.23397227 262.99349251 -329.21484375 257.8359375 C-359.64120698 240.35909793 -359.64120698 240.35909793 -371.91259766 232.63867188 C-374.58992756 231.12369495 -375.78249052 231.10676098 -378.77734375 231.5859375 C-379.52113281 231.69421875 -380.26492188 231.8025 -381.03125 231.9140625 C-382.43803843 232.18585704 -383.83751838 232.50069188 -385.22265625 232.8671875 C-391.76925087 234.4075627 -397.26985897 233.42275652 -403.21484375 230.3359375 C-404.08109375 229.9646875 -404.94734375 229.5934375 -405.83984375 229.2109375 C-410.05008329 225.88706418 -412.68251317 221.83731109 -413.50401688 216.433918 C-413.98082316 210.77764929 -413.88997096 205.10479 -413.84375 199.43359375 C-413.84457998 197.58711101 -413.8470442 195.74062835 -413.85105896 193.89414978 C-413.85390823 190.03508104 -413.83930277 186.17659546 -413.81176758 182.31762695 C-413.77771039 177.39397397 -413.7837034 172.47136451 -413.80243015 167.54766178 C-413.81304698 163.73753813 -413.80401959 159.9276533 -413.78904533 156.1175518 C-413.78389574 154.30324451 -413.78430577 152.48891194 -413.79059029 150.67460823 C-413.81953665 137.29720548 -412.73234182 126.58384822 -403.21484375 116.3359375 C-393.19845618 106.8360901 -378.68537365 103.7927208 -365.78125 100.0390625 C-364.05922413 99.53268821 -362.33737628 99.02570817 -360.61569214 98.51817322 C-355.97419473 97.15168638 -351.3303235 95.79343775 -346.68598557 94.43664169 C-341.76387117 92.99704768 -336.84408709 91.54953316 -331.92407227 90.1027832 C-323.74122119 87.69756587 -315.55712486 85.2966334 -307.37207031 82.89892578 C-295.90852115 79.54063784 -284.44784801 76.17263041 -272.98828125 72.80078125 C-271.19355295 72.27273966 -269.39882436 71.74469909 -267.60409546 71.21665955 C-264.93694235 70.43192712 -262.26979343 69.64718051 -259.60265923 68.86238384 C-253.39018437 67.03445558 -247.17734955 65.2077544 -240.96435547 63.3815918 C-218.93780929 56.90700897 -196.91679616 50.41402111 -174.90234375 43.8984375 C-174.20100815 43.69086571 -173.49967255 43.48329391 -172.77708435 43.26943207 C-167.03730374 41.57060877 -161.29756328 39.87164976 -155.55786896 38.17253494 C-136.60631025 32.56238992 -117.65210561 26.96119961 -98.69766235 21.36080933 C-94.90577544 20.24043121 -91.11392488 19.11993024 -87.32211304 17.9992981 C-86.41928117 17.73249331 -85.5164493 17.46568853 -84.58625889 17.19079876 C-82.78883259 16.65957738 -80.99143538 16.12825758 -79.19406796 15.59683704 C-74.84398501 14.31091905 -70.49329431 13.0271404 -66.14115906 11.7481842 C-58.69981235 9.5597477 -51.26303669 7.36107856 -43.84850216 5.08316898 C-40.73329113 4.12715519 -37.61486294 3.18190252 -34.49610329 2.23753929 C-33.05772421 1.79859272 -31.62096683 1.35428716 -30.18610191 0.90398598 C-9.59474582 -5.55588977 -9.59474582 -5.55588977 0 0 Z " fill="#4B36EC" transform="translate(490.21484375,9.6640625)"/>
<path d="M0 0 C4.2552028 3.19372989 7.82837817 7.37242075 9.78515625 12.33984375 C9.98581119 15.04806723 10.07892648 17.65382031 10.07568359 20.36206055 C10.08240082 21.16748795 10.08911804 21.97291534 10.09603882 22.80274963 C10.11503146 25.46491679 10.11894418 28.12683181 10.12109375 30.7890625 C10.12752274 32.6450867 10.13425118 34.50110988 10.14126587 36.35713196 C10.15324318 40.25007474 10.15694642 44.14292877 10.15576172 48.03588867 C10.15555895 53.00789248 10.18281545 57.979322 10.21730614 62.95118999 C10.23962436 66.78695756 10.24359769 70.62258825 10.24254227 74.45841408 C10.24489257 76.2903217 10.25368376 78.12223341 10.269207 79.95407677 C10.40920754 98.18823843 10.40920754 98.18823843 5.78515625 105.33984375 C5.18703125 106.37109375 4.58890625 107.40234375 3.97265625 108.46484375 C-5.50600089 120.92250742 -18.38116413 125.05535725 -33.01171875 129.26171875 C-34.56799987 129.71845768 -36.1239758 130.17623756 -37.67967224 130.63496399 C-41.01806473 131.61702771 -44.3584152 132.59199355 -47.70053101 133.56130981 C-53.07489349 135.12009259 -58.44458035 136.69457886 -63.8137207 138.27124023 C-70.45025538 140.21894269 -77.08789413 142.16279757 -83.72697544 144.10180187 C-95.95788575 147.67421548 -108.18027119 151.27488477 -120.3984375 154.890625 C-121.30603695 155.15917927 -122.2136364 155.42773354 -123.14873886 155.70442581 C-126.81368024 156.78891115 -130.47858742 157.87351193 -134.1434269 158.9583416 C-144.30526162 161.96619219 -154.4689386 164.96779848 -164.6328125 167.96875 C-165.54206608 168.23723125 -166.45131966 168.50571251 -167.38812637 168.78232956 C-188.23826443 174.93877248 -209.09078305 181.08713936 -229.94381714 187.23376465 C-249.11400943 192.8843848 -268.28276853 198.53982359 -287.44921875 204.203125 C-288.9220356 204.63831011 -288.9220356 204.63831011 -290.42460632 205.08228683 C-299.11929667 207.65143841 -307.81391147 210.2208455 -316.50830078 212.79101562 C-317.85198605 213.18820769 -317.85198605 213.18820769 -319.22281647 213.59342384 C-321.00421121 214.1200519 -322.78557844 214.64677305 -324.56691742 215.17358971 C-328.86579974 216.44473898 -333.16522026 217.71400057 -337.46594238 218.97891235 C-344.84624469 221.15106162 -352.22235879 223.33310816 -359.57891464 225.58459568 C-362.70341309 226.53980827 -365.83084464 227.48519221 -368.95859528 228.42969322 C-370.40532551 228.8696431 -371.85058639 229.3144612 -373.29415131 229.76468849 C-390.3337535 235.07726388 -390.3337535 235.07726388 -399.203125 232.45703125 C-406.1260794 228.75703209 -410.75114047 225.08690975 -413.21484375 217.33984375 C-413.41139048 214.65943577 -413.5086839 212.08296564 -413.50537109 209.40356445 C-413.51208832 208.61910446 -413.51880554 207.83464447 -413.52572632 207.02641296 C-413.54468352 204.4394187 -413.54862986 201.85268437 -413.55078125 199.265625 C-413.55721257 197.45826615 -413.56394118 195.65090833 -413.57095337 193.84355164 C-413.58292174 190.05493764 -413.58663483 186.26641477 -413.58544922 182.4777832 C-413.58524647 177.64378325 -413.61250464 172.81037412 -413.64699364 167.97651386 C-413.66933315 164.24193182 -413.67328455 160.50749013 -413.67222977 156.77284813 C-413.67457681 154.99200601 -413.68334936 153.2111595 -413.6988945 151.43038368 C-413.8154351 136.69622177 -411.78578316 126.56417316 -401.47265625 115.46484375 C-393.03774873 107.34493278 -381.24683113 104.54520488 -370.26171875 101.390625 C-368.33487212 100.82759591 -366.4080261 100.26456473 -364.48120022 99.70146465 C-362.41379392 99.09869061 -360.34543709 98.49928978 -358.27676392 97.90087891 C-353.86499755 96.6245043 -349.45605979 95.33854904 -345.04760742 94.05078125 C-343.49705771 93.59792183 -341.9465053 93.14507161 -340.39595032 92.69223022 C-339.6126214 92.46344555 -338.82929249 92.23466087 -338.02222633 91.99894333 C-335.58668638 91.28797125 -333.15088014 90.57791792 -330.7150116 89.86807251 C-317.99961703 86.16141404 -305.29464806 82.42007093 -292.59375 78.6640625 C-291.63675831 78.38107111 -290.67976662 78.09807972 -289.69377518 77.80651283 C-283.91263157 76.09678872 -278.13172855 74.3862523 -272.35090637 72.67544174 C-259.06980017 68.74506471 -245.78777221 64.81784073 -232.50299072 60.89990234 C-228.88346048 59.83239539 -225.26433059 58.76354391 -221.64544678 57.69384766 C-217.00797539 56.32334723 -212.36945887 54.95643454 -207.73024559 53.59184265 C-205.99329813 53.08037783 -204.25667129 52.56782252 -202.52041054 52.05403137 C-192.97605961 49.23062181 -183.42968279 46.56735055 -173.74775696 44.2545166 C-170.12713549 43.31713604 -166.62385777 42.18623661 -163.08984375 40.96484375 C-155.9427392 38.50448886 -148.7091529 36.5245512 -141.40869141 34.57299805 C-135.23243724 32.91360252 -129.12710747 31.11150404 -123.0378418 29.15966797 C-118.25295535 27.63612808 -113.43616913 26.27850749 -108.58984375 24.96484375 C-101.8004291 23.11847662 -95.09753626 21.06470045 -88.40234375 18.90234375 C-78.66906583 15.76230366 -68.87491931 12.91119501 -59.03173828 10.13867188 C-53.77303401 8.64738392 -48.52525638 7.1185939 -43.27734375 5.58984375 C-42.26430176 5.2959375 -41.25125977 5.00203125 -40.20751953 4.69921875 C-32.04658768 2.33775064 -32.04658768 2.33775064 -24.046875 -0.51171875 C-16.05077968 -3.57405313 -7.63957461 -4.40805024 0 0 Z " fill="#4B36EC" transform="translate(413.21484375,259.66015625)"/>
<path d="M0 0 C2.16396625 1.28531832 4.3280331 2.57046727 6.4921875 3.85546875 C7.63911903 4.54064929 8.78592733 5.22603617 9.93261719 5.91162109 C15.2057088 9.05961742 20.51101007 12.15267053 25.81262207 15.25228882 C28.87402433 17.04315862 31.93304115 18.83809282 34.9921875 20.6328125 C36.23144223 21.35970578 37.47070005 22.08659379 38.70996094 22.81347656 C40.57393868 23.90685223 42.43790928 25.00024008 44.30187988 26.09362793 C57.79905515 34.01082705 71.29744549 41.92584444 84.8125 49.8125 C86.27393433 50.66557739 86.27393433 50.66557739 87.76489258 51.53588867 C92.64282118 54.38044762 97.52934816 57.2078971 102.4375 60 C102.1075 60.66 101.7775 61.32 101.4375 62 C99.31423742 62.62430719 97.16023012 63.1439498 95 63.625 C87.54154462 65.37156759 80.24796713 67.52882558 72.9375 69.8125 C64.25206403 72.52223466 55.55364866 75.16293018 46.8125 77.6875 C40.28704739 79.57232724 33.78186471 81.49323931 27.3125 83.5625 C20.19197796 85.82040647 13.00409686 87.76411017 5.78955078 89.69726562 C-1.08666573 91.55628077 -7.87002363 93.6301171 -14.6484375 95.81567383 C-21.48836827 98.00938265 -28.38242038 99.95204256 -35.31640625 101.82421875 C-38.09642984 102.57907633 -40.84640666 103.39111745 -43.58984375 104.26953125 C-44.81832031 104.65496094 -46.04679687 105.04039062 -47.3125 105.4375 C-48.37984375 105.78683594 -49.4471875 106.13617188 -50.546875 106.49609375 C-56.2766084 107.45352329 -60.83699939 104.4377604 -65.6484375 101.578125 C-66.21801178 101.24190125 -66.78758606 100.90567749 -67.37442017 100.55926514 C-69.23188858 99.4613319 -71.08461468 98.35564681 -72.9375 97.25 C-74.24442304 96.47593977 -75.55171989 95.70251037 -76.859375 94.9296875 C-79.50875987 93.36346441 -82.15672199 91.79487791 -84.80371094 90.22460938 C-90.04015792 87.12145589 -95.3008861 84.06022572 -100.5625 81 C-110.62946287 75.13453115 -120.68228223 69.24513932 -130.73022461 63.34716797 C-136.67859657 59.85654472 -142.63169823 56.37455678 -148.59765625 52.9140625 C-149.69980469 52.27404297 -150.80195313 51.63402344 -151.9375 50.97460938 C-154.00786712 49.77323826 -156.07941651 48.57390143 -158.15234375 47.37695312 C-159.07273437 46.84263672 -159.993125 46.30832031 -160.94140625 45.7578125 C-161.7413501 45.2952002 -162.54129395 44.83258789 -163.36547852 44.35595703 C-165.55120324 43.00697213 -167.6032802 41.66319843 -169.5625 40 C-169.5625 39.34 -169.5625 38.68 -169.5625 38 C-168.94133301 37.82984375 -168.32016602 37.6596875 -167.68017578 37.484375 C-152.21001427 33.23311921 -136.85552832 28.68351677 -121.53564453 23.92138672 C-100.45857265 17.38953672 -79.27457548 10.82528048 -57.76171875 5.88671875 C-54.8657017 5.08403759 -52.26697653 4.01869448 -49.52905273 2.79614258 C-45.55015186 1.18531753 -41.38317339 0.13936725 -37.25 -1 C-35.46205104 -1.49932538 -33.67428986 -1.99932363 -31.88671875 -2.5 C-31.00677246 -2.74234375 -30.12682617 -2.9846875 -29.22021484 -3.234375 C-27.42854271 -3.75051351 -25.64716093 -4.30361492 -23.87744141 -4.890625 C-13.79600101 -8.21272481 -8.79167159 -5.31306151 0 0 Z " fill="#1A1D31" transform="translate(284.5625,200)"/>
<path d="M0 0 C0.6875 1.6875 0.6875 1.6875 1 4 C0.5191243 4.6982338 0.0382486 5.39646759 -0.4571991 6.11585999 C-2.48291362 9.90276748 -2.41301952 13.27247312 -2.37231445 17.45874023 C-2.37596512 18.29839325 -2.37961578 19.13804626 -2.38337708 20.00314331 C-2.39146633 22.77183415 -2.37788484 25.53993669 -2.36328125 28.30859375 C-2.3627624 30.23763529 -2.36328107 32.16667737 -2.36479187 34.09571838 C-2.36470222 38.1365652 -2.35428753 42.17721222 -2.33618164 46.21801758 C-2.31351007 51.39079656 -2.31294842 56.56328332 -2.31969929 61.73609829 C-2.32304544 65.71929 -2.31639673 69.70241543 -2.30657005 73.68559456 C-2.30272778 75.5925264 -2.3015658 77.49946563 -2.3031559 79.40640068 C-2.30352791 82.07503097 -2.29086787 84.74329076 -2.2746582 87.41186523 C-2.27713562 88.19595261 -2.27961304 88.98003998 -2.28216553 89.78788757 C-2.23919032 94.23446272 -1.64917563 97.86672973 0 102 C-3.67504812 98.56205176 -4.92953321 96.66742186 -5.14717102 91.51756287 C-5.16227437 90.04747844 -5.17179342 88.57733051 -5.17700195 87.10717773 C-5.18357315 86.30350266 -5.19014435 85.49982758 -5.19691467 84.67179871 C-5.21664052 82.00906274 -5.22831167 79.34638329 -5.23828125 76.68359375 C-5.24235678 75.77209124 -5.2464323 74.86058872 -5.25063133 73.92146492 C-5.27149387 69.09242098 -5.28579206 64.26340543 -5.29516602 59.43432617 C-5.30620162 54.46354651 -5.34056792 49.49321805 -5.38033772 44.52259731 C-5.40658269 40.68680533 -5.41486506 36.85111929 -5.41844749 33.01524544 C-5.42329691 31.18415357 -5.43486362 29.3530659 -5.45348549 27.5220623 C-5.63217335 8.78021794 -5.63217335 8.78021794 -1 1 C-0.67 0.67 -0.34 0.34 0 0 Z " fill="#4E3DC5" transform="translate(82,133)"/>
<path d="M0 0 C-2.64717551 1.76478367 -4.35996117 2.54568601 -7.33203125 3.4362793 C-8.20303467 3.6996257 -9.07403809 3.96297211 -9.97143555 4.23429871 C-10.90898682 4.51147232 -11.84653809 4.78864594 -12.8125 5.07421875 C-13.77776611 5.36230911 -14.74303223 5.65039948 -15.73754883 5.94721985 C-17.77769657 6.55413329 -19.8186544 7.15832926 -21.86035156 7.76000977 C-24.99072463 8.68475994 -28.1164627 9.62412845 -31.2421875 10.56445312 C-33.22369248 11.15193908 -35.20545502 11.73855721 -37.1875 12.32421875 C-38.12505127 12.60746506 -39.06260254 12.89071136 -40.02856445 13.18254089 C-40.89956787 13.43643082 -41.77057129 13.69032074 -42.66796875 13.9519043 C-43.43391357 14.1790361 -44.1998584 14.40616791 -44.98901367 14.6401825 C-47 15 -47 15 -50 14 C-49.67 13.34 -49.34 12.68 -49 12 C-47.02 12 -45.04 12 -43 12 C-43 11.34 -43 10.68 -43 10 C-38.02322102 8.4597225 -33.22960352 7.49363261 -28.0625 6.875 C-27.03672852 6.74544922 -27.03672852 6.74544922 -25.99023438 6.61328125 C-24.32742954 6.40397715 -22.66379487 6.20128278 -21 6 C-21 5.34 -21 4.68 -21 4 C-19.989375 3.9175 -18.97875 3.835 -17.9375 3.75 C-14.93732822 3.35158685 -13.02037354 2.53238849 -10.5 0.875 C-6.37645838 -1.33404016 -4.45896688 -1.09199189 0 0 Z " fill="#4C3CC7" transform="translate(344,171)"/>
<path d="M0 0 C2.00491137 1.45454354 3.36577684 3.00729697 4.59375 5.15625 C3.60375 5.48625 2.61375 5.81625 1.59375 6.15625 C1.09875 4.17625 1.09875 4.17625 0.59375 2.15625 C-0.14875 2.383125 -0.89125 2.61 -1.65625 2.84375 C-4.40625 3.15625 -4.40625 3.15625 -6.23828125 1.69921875 C-10.14546498 -1.08156967 -14.79974199 -0.37157904 -19.40625 0.15625 C-22.29664626 1.45416982 -22.29664626 1.45416982 -24.40625 3.15625 C-27.93246481 4.52123638 -30.75165052 3.90378171 -34.40625 3.15625 C-24.81219478 -3.23978681 -10.32620553 -5.92487203 0 0 Z " fill="#4A3AC6" transform="translate(490.40625,9.84375)"/>
<path d="M0 0 C1.98 0 3.96 0 6 0 C2.99382731 3.00617269 0.17618402 2.59585316 -4 3 C-4 3.66 -4 4.32 -4 5 C-14.20641854 7.90131695 -22.27549621 9.96570406 -32 5 C-30.68 4.67 -29.36 4.34 -28 4 C-28 4.66 -28 5.32 -28 6 C-25.68715544 5.85973717 -23.37472409 5.71264442 -21.0625 5.5625 C-19.77472656 5.48128906 -18.48695312 5.40007812 -17.16015625 5.31640625 C-14.13976043 5.35080812 -14.13976043 5.35080812 -13 4 C-11.00041636 3.95919217 -8.99954746 3.95745644 -7 4 C-7 3.34 -7 2.68 -7 2 C-4.69 2 -2.38 2 0 2 C0 1.34 0 0.68 0 0 Z " fill="#4D3EC3" transform="translate(119,235)"/>
<path d="M0 0 C-1.98 0.33 -3.96 0.66 -6 1 C-6.66 2.98 -7.32 4.96 -8 7 C-13.94 6.01 -13.94 6.01 -20 5 C-20 5.66 -20 6.32 -20 7 C-22.31 7 -24.62 7 -27 7 C-22.94322732 4.29548488 -18.70507084 3.20888542 -14.0625 1.8125 C-13.15564453 1.52697266 -12.24878906 1.24144531 -11.31445312 0.94726562 C-10.43853516 0.68236328 -9.56261719 0.41746094 -8.66015625 0.14453125 C-7.86230713 -0.09934326 -7.06445801 -0.34321777 -6.24243164 -0.59448242 C-3.80896009 -1.03454734 -2.32422677 -0.77739889 0 0 Z " fill="#4B3AD1" transform="translate(287,64)"/>
<path d="M0 0 C0.66 0.33 1.32 0.66 2 1 C2 1.66 2 2.32 2 3 C3.5159375 2.505 3.5159375 2.505 5.0625 2 C8.75479911 0.92998679 12.15248207 0.84295845 16 1 C11.94488044 3.70341304 7.70867614 4.75054733 3.0625 6.125 C2.15564453 6.40214844 1.24878906 6.67929687 0.31445312 6.96484375 C-0.99942383 7.35736328 -0.99942383 7.35736328 -2.33984375 7.7578125 C-3.13769287 7.9964502 -3.93554199 8.23508789 -4.75756836 8.48095703 C-7 9 -7 9 -11 9 C-11 8.34 -11 7.68 -11 7 C-10.37351562 6.82984375 -9.74703125 6.6596875 -9.1015625 6.484375 C-8.28429687 6.24203125 -7.46703125 5.9996875 -6.625 5.75 C-5.81289062 5.51796875 -5.00078125 5.2859375 -4.1640625 5.046875 C-1.54214546 3.7785108 -1.00617682 2.67576692 0 0 Z " fill="#4C3BD4" transform="translate(75,472)"/>
<path d="M0 0 C-5.50543751 2.99469767 -11.64647458 4.41436591 -17.625 6.1875 C-18.87796875 6.56841797 -20.1309375 6.94933594 -21.421875 7.34179688 C-22.61554688 7.69693359 -23.80921875 8.05207031 -25.0390625 8.41796875 C-26.13428223 8.74563232 -27.22950195 9.0732959 -28.35791016 9.41088867 C-31 10 -31 10 -33 9 C-30.14860796 6.60327184 -28.11025445 5.6010093 -24.4375 5.0625 C-20.51924824 4.38733733 -17.07072445 3.33992555 -13.375 1.875 C-8.63417456 0.05419933 -5.04543182 -0.38078731 0 0 Z " fill="#4C3EC5" transform="translate(288,415)"/>
<path d="M0 0 C-3.78872135 1.14456903 -7.57901747 2.28374655 -11.37084961 3.41796875 C-13.29431293 3.99454822 -15.21650011 4.57537931 -17.13867188 5.15625 C-18.34716797 5.5171875 -19.55566406 5.878125 -20.80078125 6.25 C-21.91622314 6.58515625 -23.03166504 6.9203125 -24.1809082 7.265625 C-27 8 -27 8 -30 8 C-30 7.34 -30 6.68 -30 6 C-28.35 6 -26.7 6 -25 6 C-25 5.01 -25 4.02 -25 3 C-23.4840625 3.0309375 -23.4840625 3.0309375 -21.9375 3.0625 C-18.19672743 3.00312266 -14.68755102 2.60204915 -11 2 C-11 1.34 -11 0.68 -11 0 C-6.97959015 -0.69584017 -3.91736581 -1.1700097 0 0 Z " fill="#4A3DBD" transform="translate(388,159)"/>
<path d="M0 0 C-0.78375 0.433125 -1.5675 0.86625 -2.375 1.3125 C-5.21698375 2.89220247 -5.21698375 2.89220247 -7 6 C-10.125 7.1875 -10.125 7.1875 -13 8 C-13 7.34 -13 6.68 -13 6 C-15.97 6 -18.94 6 -22 6 C-18.29592395 3.53061597 -14.67963641 2.54817625 -10.4375 1.3125 C-9.65697266 1.07466797 -8.87644531 0.83683594 -8.07226562 0.59179688 C-2.24524715 -1.12262357 -2.24524715 -1.12262357 0 0 Z " fill="#4B39D2" transform="translate(448,16)"/>
<path d="M0 0 C-1.6875 2.0625 -1.6875 2.0625 -4 4 C-5.67293936 3.69972883 -7.33985384 3.36442233 -9 3 C-10.10601562 3.70382812 -10.10601562 3.70382812 -11.234375 4.421875 C-14.56862708 6.32447082 -16.9993928 6.49491883 -20.8125 6.6875 C-21.97394531 6.75324219 -23.13539062 6.81898438 -24.33203125 6.88671875 C-25.21246094 6.92410156 -26.09289062 6.96148437 -27 7 C-22.94322732 4.29548488 -18.70507084 3.20888542 -14.0625 1.8125 C-13.15564453 1.52697266 -12.24878906 1.24144531 -11.31445312 0.94726562 C-10.43853516 0.68236328 -9.56261719 0.41746094 -8.66015625 0.14453125 C-7.86230713 -0.09934326 -7.06445801 -0.34321777 -6.24243164 -0.59448242 C-3.80896009 -1.03454734 -2.32422677 -0.77739889 0 0 Z " fill="#4B3AC8" transform="translate(105,345)"/>
<path d="M0 0 C-4.62 0.33 -9.24 0.66 -14 1 C-14 1.99 -14 2.98 -14 4 C-14.99 4 -15.98 4 -17 4 C-17 3.34 -17 2.68 -17 2 C-19.31 2.33 -21.62 2.66 -24 3 C-19.07609192 -3.37211634 -6.31798101 -4.21198734 0 0 Z " fill="#4A3EC0" transform="translate(410,259)"/>
<path d="M0 0 C2.64 0.33 5.28 0.66 8 1 C3.79755417 3.80163055 -0.67146287 4.81392016 -5.5 6.1875 C-6.46292969 6.47302734 -7.42585937 6.75855469 -8.41796875 7.05273438 C-9.34222656 7.31763672 -10.26648438 7.58253906 -11.21875 7.85546875 C-12.06373047 8.09934326 -12.90871094 8.34321777 -13.77929688 8.59448242 C-16 9 -16 9 -19 8 C-17.84371094 7.61908203 -17.84371094 7.61908203 -16.6640625 7.23046875 C-15.66117188 6.88628906 -14.65828125 6.54210937 -13.625 6.1875 C-12.62726563 5.85105469 -11.62953125 5.51460938 -10.6015625 5.16796875 C-7.7154291 4.1493425 -7.7154291 4.1493425 -6 1 C-3.525 1.99 -3.525 1.99 -1 3 C-0.67 2.01 -0.34 1.02 0 0 Z " fill="#4C3CC8" transform="translate(212,434)"/>
<path d="M0 0 C0.33 0.66 0.66 1.32 1 2 C3.31 2 5.62 2 8 2 C4.62066551 3.83875553 1.17043833 4.98851107 -2.5 6.125 C-4.18609375 6.65480469 -4.18609375 6.65480469 -5.90625 7.1953125 C-9 8 -9 8 -13 8 C-13 7.34 -13 6.68 -13 6 C-12.360625 5.87625 -11.72125 5.7525 -11.0625 5.625 C-10.381875 5.41875 -9.70125 5.2125 -9 5 C-8.67 4.34 -8.34 3.68 -8 3 C-5.69 3.33 -3.38 3.66 -1 4 C-1 3.34 -1 2.68 -1 2 C-1.66 1.67 -2.32 1.34 -3 1 C-2.01 0.67 -1.02 0.34 0 0 Z " fill="#4C3BCA" transform="translate(445,137)"/>
<path d="M0 0 C-4.21755057 2.81170038 -8.71515797 3.81500142 -13.5625 5.1875 C-15.01946289 5.61579102 -15.01946289 5.61579102 -16.50585938 6.05273438 C-17.43333984 6.31763672 -18.36082031 6.58253906 -19.31640625 6.85546875 C-20.16662354 7.09934326 -21.01684082 7.34321777 -21.89282227 7.59448242 C-24 8 -24 8 -26 7 C-20.92927002 2.99679212 -16.30364729 2.00898316 -10 1 C-9.13117188 0.81953125 -8.26234375 0.6390625 -7.3671875 0.453125 C-4.86018823 -0.02676265 -2.54629713 -0.07275135 0 0 Z " fill="#4B3CC4" transform="translate(142,458)"/>
<path d="M0 0 C-2.54204137 1.69469425 -4.07600823 2.45762849 -6.90625 3.2890625 C-7.65003906 3.50820312 -8.39382813 3.72734375 -9.16015625 3.953125 C-9.93230469 4.17484375 -10.70445312 4.3965625 -11.5 4.625 C-12.27214844 4.85445312 -13.04429687 5.08390625 -13.83984375 5.3203125 C-17.04518087 6.25358223 -19.63701221 7 -23 7 C-23 6.01 -23 5.02 -23 4 C-22.2575 3.855625 -21.515 3.71125 -20.75 3.5625 C-17.82382793 2.9639648 -14.94814793 2.26294791 -12.0703125 1.46484375 C-7.94169278 0.34563961 -4.31795819 -0.21589791 0 0 Z " fill="#4D3EC3" transform="translate(412,151)"/>
<path d="M0 0 C0 0.66 0 1.32 0 2 C-1.65 2 -3.3 2 -5 2 C-5 2.66 -5 3.32 -5 4 C-10.22512279 5.46670113 -14.5814234 6.22577402 -20 6 C-16.67817543 3.78545028 -13.83578665 2.95381499 -10 1.875 C-8.7625 1.52179687 -7.525 1.16859375 -6.25 0.8046875 C-3 0 -3 0 0 0 Z " fill="#4A3AC8" transform="translate(334,49)"/>
<path d="M0 0 C-1.11375 0.45375 -2.2275 0.9075 -3.375 1.375 C-6.96199008 2.72465986 -6.96199008 2.72465986 -9 5 C-11.6015625 5.1953125 -11.6015625 5.1953125 -14.625 5.125 C-16.12933594 5.09792969 -16.12933594 5.09792969 -17.6640625 5.0703125 C-18.43492188 5.04710937 -19.20578125 5.02390625 -20 5 C-16.68512871 2.79008581 -13.82122888 1.91508375 -10 0.8125 C-8.7625 0.44769531 -7.525 0.08289063 -6.25 -0.29296875 C-3 -1 -3 -1 0 0 Z " fill="#4A3ACA" transform="translate(142,334)"/>
<path d="M0 0 C-2.64 0.99 -5.28 1.98 -8 3 C-7.67 3.99 -7.34 4.98 -7 6 C-8.32 6.33 -9.64 6.66 -11 7 C-11 6.34 -11 5.68 -11 5 C-13.97 4.505 -13.97 4.505 -17 4 C-14.23719462 2.15812975 -12.19292174 1.27751723 -9.0625 0.3125 C-7.78052734 -0.09548828 -7.78052734 -0.09548828 -6.47265625 -0.51171875 C-4 -1 -4 -1 0 0 Z " fill="#4A39CD" transform="translate(375,38)"/>
<path d="M0 0 C-1.41225926 0.67595315 -2.83002905 1.34040059 -4.25 2 C-5.43335938 2.556875 -5.43335938 2.556875 -6.640625 3.125 C-9 4 -9 4 -13 4 C-12.67 4.99 -12.34 5.98 -12 7 C-12.99 7.33 -13.98 7.66 -15 8 C-16.32 6.68 -17.64 5.36 -19 4 C-16.21079611 3.1369594 -13.41913928 2.28427693 -10.625 1.4375 C-9.8309375 1.19064453 -9.036875 0.94378906 -8.21875 0.68945312 C-7.45820313 0.46064453 -6.69765625 0.23183594 -5.9140625 -0.00390625 C-5.2123291 -0.21861572 -4.5105957 -0.4333252 -3.78759766 -0.65454102 C-2 -1 -2 -1 0 0 Z " fill="#4A38CC" transform="translate(424,23)"/>
<path d="M0 0 C-3.62350621 1.17134222 -7.24903999 2.33627802 -10.875 3.5 C-11.90753906 3.83386719 -12.94007813 4.16773438 -14.00390625 4.51171875 C-15.48310547 4.98544922 -15.48310547 4.98544922 -16.9921875 5.46875 C-17.90339355 5.76201172 -18.81459961 6.05527344 -19.75341797 6.35742188 C-22 7 -22 7 -24 7 C-23.67 6.01 -23.34 5.02 -23 4 C-21.09814453 3.18457031 -21.09814453 3.18457031 -18.6328125 2.578125 C-17.30443359 2.24748047 -17.30443359 2.24748047 -15.94921875 1.91015625 C-15.01722656 1.69230469 -14.08523438 1.47445313 -13.125 1.25 C-12.20074219 1.01667969 -11.27648437 0.78335937 -10.32421875 0.54296875 C-3.40345982 -1.13448661 -3.40345982 -1.13448661 0 0 Z " fill="#1E1A5B" transform="translate(292,289)"/>
<path d="M0 0 C-6.94889267 2.42211826 -13.78069368 4.55613874 -21 6 C-21 5.34 -21 4.68 -21 4 C-20.01 4 -19.02 4 -18 4 C-18 3.34 -18 2.68 -18 2 C-16.80375 1.87625 -15.6075 1.7525 -14.375 1.625 C-11.58716934 1.29006628 -9.43980942 0.80608788 -6.75 -0.125 C-3.81113432 -1.06009363 -2.84573404 -0.86344922 0 0 Z " fill="#1E1B5D" transform="translate(326,279)"/>
<path d="M0 0 C-3.65230191 2.06434456 -7.53714686 3.11226102 -11.5625 4.1875 C-12.23474609 4.37763672 -12.90699219 4.56777344 -13.59960938 4.76367188 C-16.93775296 5.66202035 -18.65057878 6.11647374 -22 5 C-18.62902617 3.50178941 -16.79557881 3 -13 3 C-13 2.34 -13 1.68 -13 1 C-8.62426048 0.40667939 -4.42471556 -0.13827236 0 0 Z " fill="#493CC6" transform="translate(287,188)"/>
<path d="M0 0 C-2 2 -2 2 -5.125 2.125 C-6.07375 2.08375 -7.0225 2.0425 -8 2 C-8.33 2.99 -8.66 3.98 -9 5 C-11.64 4.67 -14.28 4.34 -17 4 C-14.23719462 2.15812975 -12.19292174 1.27751723 -9.0625 0.3125 C-7.78052734 -0.09548828 -7.78052734 -0.09548828 -6.47265625 -0.51171875 C-3.89489426 -1.02075548 -2.45550663 -0.84888744 0 0 Z " fill="#4C3ACD" transform="translate(155,103)"/>
<path d="M0 0 C2.31 0.33 4.62 0.66 7 1 C4.40052213 3.59947787 2.07261547 4.0684435 -1.4375 5.125 C-2.59121094 5.47820312 -3.74492187 5.83140625 -4.93359375 6.1953125 C-8 7 -8 7 -11 7 C-11 6.34 -11 5.68 -11 5 C-10.28972656 4.80664062 -9.57945312 4.61328125 -8.84765625 4.4140625 C-7.92855469 4.15367187 -7.00945312 3.89328125 -6.0625 3.625 C-4.68771484 3.24214844 -4.68771484 3.24214844 -3.28515625 2.8515625 C-0.83254913 2.23339896 -0.83254913 2.23339896 0 0 Z " fill="#4B3CC7" transform="translate(394,380)"/>
<path d="M0 0 C0 0.66 0 1.32 0 2 C-0.66 2 -1.32 2 -2 2 C-2 2.66 -2 3.32 -2 4 C-2.886875 4.391875 -3.77375 4.78375 -4.6875 5.1875 C-8.12129608 7.06636955 -10.36541769 9.13295455 -13 12 C-13.66 11.67 -14.32 11.34 -15 11 C-13.58972554 9.53548421 -12.17151204 8.0786107 -10.75 6.625 C-9.96109375 5.81289063 -9.1721875 5.00078125 -8.359375 4.1640625 C-5.72513229 1.74788624 -3.64856345 0 0 0 Z " fill="#4939C4" transform="translate(22,369)"/>
<path d="M0 0 C-3.78921887 3.78921887 -7.94846357 3.61268807 -13 4 C-14.52190375 4.17860358 -16.04287306 4.36546134 -17.5625 4.5625 C-18.696875 4.706875 -19.83125 4.85125 -21 5 C-17.61851324 3.16836134 -14.16142821 1.9755913 -10.5 0.8125 C-9.3759375 0.44769531 -8.251875 0.08289063 -7.09375 -0.29296875 C-4.14684278 -0.96644123 -2.76852654 -1.06533987 0 0 Z " fill="#493BC2" transform="translate(78,353)"/>
<path d="M0 0 C1.32 0.33 2.64 0.66 4 1 C3.67 1.33 3.34 1.66 3 2 C3.99 2.66 4.98 3.32 6 4 C4.42085985 4.53341184 2.83645613 5.05125763 1.25 5.5625 C0.36828125 5.85253906 -0.5134375 6.14257812 -1.421875 6.44140625 C-4.07834316 7.01697435 -5.47031106 6.89248371 -8 6 C-7 5 -7 5 -4.4375 4.9375 C-3.2309375 4.9684375 -3.2309375 4.9684375 -2 5 C-1.34 3.35 -0.68 1.7 0 0 Z " fill="#4C3BCF" transform="translate(467,130)"/>
<path d="M0 0 C0.33 0.66 0.66 1.32 1 2 C0.39031953 3.68834592 -0.28837557 5.35202764 -1 7 C-1.33 8.010625 -1.66 9.02125 -2 10.0625 C-2.83776731 12.52344146 -3.77098631 14.717546 -5 17 C-6.318017 13.3817495 -5.67521057 11.42284315 -4.1875 7.9375 C-3.83042969 7.08027344 -3.47335937 6.22304688 -3.10546875 5.33984375 C-2 3 -2 3 0 0 Z " fill="#4738C4" transform="translate(6,382)"/>
<path d="M0 0 C-6.63729312 3.52350129 -12.513226 4.7201206 -20 5 C-16.85418354 2.90278902 -14.1591082 1.94332914 -10.5625 0.8125 C-9.42941406 0.44769531 -8.29632813 0.08289063 -7.12890625 -0.29296875 C-4.1660003 -0.96248932 -2.77995035 -1.07236414 0 0 Z " fill="#4B3CBE" transform="translate(227,309)"/>
<path d="M0 0 C-2.22071943 2.55382735 -3.69479056 3.38617539 -7 4 C-8.58211573 4.06548492 -10.16670081 4.08578381 -11.75 4.0625 C-12.54921875 4.05347656 -13.3484375 4.04445313 -14.171875 4.03515625 C-14.77515625 4.02355469 -15.3784375 4.01195313 -16 4 C-13.21769572 2.14513048 -11.15636393 1.27537888 -8 0.3125 C-6.700625 -0.09548828 -6.700625 -0.09548828 -5.375 -0.51171875 C-3 -1 -3 -1 0 0 Z " fill="#4A39CC" transform="translate(225,82)"/>
<path d="M0 0 C2.64 0 5.28 0 8 0 C5.23719462 1.84187025 3.19292174 2.72248277 0.0625 3.6875 C-0.79214844 3.95949219 -1.64679688 4.23148437 -2.52734375 4.51171875 C-5.10510574 5.02075548 -6.54449337 4.84888744 -9 4 C-5.5647952 1.70986347 -4.014669 1.82157027 0 2 C0 1.34 0 0.68 0 0 Z " fill="#4C3DC4" transform="translate(151,453)"/>
<path d="M0 0 C-6.25461856 2.26616615 -12.45150687 3.83795007 -19 5 C-16.3359375 2.0234375 -16.3359375 2.0234375 -13.3125 1.8125 C-12.549375 1.874375 -11.78625 1.93625 -11 2 C-11 1.34 -11 0.68 -11 0 C-9.54263913 -0.19491452 -8.08405407 -0.38069358 -6.625 -0.5625 C-5.81289062 -0.66691406 -5.00078125 -0.77132812 -4.1640625 -0.87890625 C-2 -1 -2 -1 0 0 Z " fill="#4133B6" transform="translate(231,205)"/>
<path d="M0 0 C-5.93438408 3.07708804 -10.29873464 4.48736475 -17 4 C-14.23719462 2.15812975 -12.19292174 1.27751723 -9.0625 0.3125 C-7.78052734 -0.09548828 -7.78052734 -0.09548828 -6.47265625 -0.51171875 C-3.89489426 -1.02075548 -2.45550663 -0.84888744 0 0 Z " fill="#4A3CC8" transform="translate(243,77)"/>
<path d="M0 0 C1.60727327 0.22917968 3.21087416 0.48420802 4.8125 0.75 C5.70582031 0.88921875 6.59914063 1.0284375 7.51953125 1.171875 C10.50572658 2.168841 11.38380344 3.3582435 13 6 C12.01 6.33 11.02 6.66 10 7 C9.67 5.68 9.34 4.36 9 3 C8.2575 3.2475 7.515 3.495 6.75 3.75 C5.8425 3.8325 4.935 3.915 4 4 C1.6875 2.0625 1.6875 2.0625 0 0 Z " fill="#4936D5" transform="translate(482,9)"/>
<path d="M0 0 C-5.44535609 3.38495108 -10.67721029 3.67373505 -17 4 C-14.23719462 2.15812975 -12.19292174 1.27751723 -9.0625 0.3125 C-7.78052734 -0.09548828 -7.78052734 -0.09548828 -6.47265625 -0.51171875 C-3.89489426 -1.02075548 -2.45550663 -0.84888744 0 0 Z " fill="#4A3CC5" transform="translate(260,72)"/>
<path d="M0 0 C-0.969375 0.268125 -1.93875 0.53625 -2.9375 0.8125 C-3.948125 1.204375 -4.95875 1.59625 -6 2 C-6.33 2.99 -6.66 3.98 -7 5 C-9.64 4.67 -12.28 4.34 -15 4 C-12.19836511 2.13224341 -10.11958197 1.27321694 -6.9375 0.3125 C-6.05964844 0.04050781 -5.18179687 -0.23148438 -4.27734375 -0.51171875 C-2 -1 -2 -1 0 0 Z " fill="#4A3BC7" transform="translate(390,33)"/>
<path d="M0 0 C-2.76280538 1.84187025 -4.80707826 2.72248277 -7.9375 3.6875 C-8.79214844 3.95949219 -9.64679688 4.23148437 -10.52734375 4.51171875 C-13.10510574 5.02075548 -14.54449337 4.84888744 -17 4 C-11.15439723 1.36536213 -6.45512034 -0.56131481 0 0 Z " fill="#4C3DC1" transform="translate(91,473)"/>
<path d="M0 0 C0.969375 0.12375 1.93875 0.2475 2.9375 0.375 C3.5975 1.365 4.2575 2.355 4.9375 3.375 C3.6175 3.705 2.2975 4.035 0.9375 4.375 C0.9375 3.715 0.9375 3.055 0.9375 2.375 C-1.3725 2.705 -3.6825 3.035 -6.0625 3.375 C-4.13380831 0.80341108 -3.26844961 0.40021832 0 0 Z " fill="#4937D3" transform="translate(392.0625,258.625)"/>
<path d="M0 0 C1.98 0 3.96 0 6 0 C2.99382731 3.00617269 0.17618402 2.59585316 -4 3 C-4 3.66 -4 4.32 -4 5 C-4.99 5 -5.98 5 -7 5 C-7 4.01 -7 3.02 -7 2 C-4.69 2 -2.38 2 0 2 C0 1.34 0 0.68 0 0 Z " fill="#4335BF" transform="translate(119,235)"/>
<path d="M0 0 C1.65 0.33 3.3 0.66 5 1 C5 1.66 5 2.32 5 3 C1.7 3.66 -1.6 4.32 -5 5 C-5 4.34 -5 3.68 -5 3 C-3.35 3 -1.7 3 0 3 C0 2.01 0 1.02 0 0 Z " fill="#4B3AD1" transform="translate(363,162)"/>
<path d="M0 0 C1.875 0.5 1.875 0.5 4 2 C4.98494554 4.65177645 5.45912382 7.20547307 6 10 C2.51668565 6.98112756 1.20842856 4.43090471 0 0 Z " fill="#4B3CC6" transform="translate(0,476)"/>
<path d="M0 0 C-0.33 0.99 -0.66 1.98 -1 3 C-2.58086048 3.36504603 -4.16483907 3.71660506 -5.75 4.0625 C-6.63171875 4.25972656 -7.5134375 4.45695312 -8.421875 4.66015625 C-10.98679028 4.99825872 -12.57091639 4.81158635 -15 4 C-12.87607494 3.3299166 -10.75082476 2.66403203 -8.625 2 C-7.44164062 1.62875 -6.25828125 1.2575 -5.0390625 0.875 C-2 0 -2 0 0 0 Z " fill="#4C3DC5" transform="translate(56,358)"/>
<path d="M0 0 C-5.00932754 3.00559652 -8.32723489 3.29341888 -14 3 C-9.7368213 0.15788087 -5.03577274 -2.0143091 0 0 Z " fill="#4A3CC3" transform="translate(190,320)"/>
<path d="M0 0 C-0.928125 0.680625 -0.928125 0.680625 -1.875 1.375 C-4.05919833 2.97108919 -4.05919833 2.97108919 -6 5 C-6 4.01 -6 3.02 -6 2 C-7.98 2.33 -9.96 2.66 -12 3 C-8.61613364 -0.38386636 -4.56431325 -1.75550509 0 0 Z " fill="#4637C3" transform="translate(262,299)"/>
<path d="M0 0 C5.62541841 0.45003347 8.61487125 1.68441485 13 5 C12.01 5.495 12.01 5.495 11 6 C6.83888437 4.45884606 3.42125054 2.87385045 0 0 Z " fill="#11132A" transform="translate(269,194)"/>
<path d="M0 0 C-2.88628401 1.57554035 -5.53342384 2.46276373 -8.75 3.125 C-9.94882812 3.37636719 -9.94882812 3.37636719 -11.171875 3.6328125 C-11.77515625 3.75398437 -12.3784375 3.87515625 -13 4 C-8.62340682 -0.37659318 -5.88808394 -0.39919213 0 0 Z " fill="#4B3CBF" transform="translate(358,167)"/>
<path d="M0 0 C-4.30769231 3.07692308 -4.30769231 3.07692308 -7.8125 2.6875 C-8.534375 2.460625 -9.25625 2.23375 -10 2 C-6.80505194 -1.19494806 -4.22040044 -1.35655728 0 0 Z " fill="#1D1A54" transform="translate(184,220)"/>
<path d="M0 0 C1.9453125 -0.29296875 1.9453125 -0.29296875 4.125 -0.1875 C5.40375 -0.125625 6.6825 -0.06375 8 0 C4.99382731 3.00617269 2.17618402 2.59585316 -2 3 C-1.34 2.01 -0.68 1.02 0 0 Z " fill="#4837C8" transform="translate(178,217)"/>
<path d="M0 0 C0.66 0 1.32 0 2 0 C1.67 1.32 1.34 2.64 1 4 C-0.98 4.33 -2.96 4.66 -5 5 C-5 4.01 -5 3.02 -5 2 C-3.35 1.67 -1.7 1.34 0 1 C0 0.67 0 0.34 0 0 Z " fill="#4C3BD0" transform="translate(394,153)"/>
<path d="M0 0 C-5.17578125 3.22265625 -5.17578125 3.22265625 -7 4 C-7.99 3.67 -8.98 3.34 -10 3 C-9.01 2.67 -8.02 2.34 -7 2 C-7 1.34 -7 0.68 -7 0 C-2.25 -1.125 -2.25 -1.125 0 0 Z " fill="#4B3AC1" transform="translate(483,129)"/>
<path d="M0 0 C-2 2 -2 2 -3.9453125 2.1953125 C-5.96354167 2.13020833 -7.98177083 2.06510417 -10 2 C-6.19832777 -0.53444815 -4.31588991 -1.33941411 0 0 Z " fill="#4C3BC5" transform="translate(166,327)"/>
<path d="M0 0 C0.62109375 1.796875 0.62109375 1.796875 1 4 C-0.9375 7.25 -0.9375 7.25 -3 10 C-3.33 9.34 -3.66 8.68 -4 8 C-3.22265625 6.0546875 -3.22265625 6.0546875 -2.0625 3.875 C-1.49208984 2.78832031 -1.49208984 2.78832031 -0.91015625 1.6796875 C-0.60980469 1.12539062 -0.30945313 0.57109375 0 0 Z " fill="#4A39C2" transform="translate(82,133)"/>
<path d="M0 0 C0.66 1.32 1.32 2.64 2 4 C0.68 5.32 -0.64 6.64 -2 8 C-2.125 5.125 -2.125 5.125 -2 2 C-1.34 1.34 -0.68 0.68 0 0 Z " fill="#4B37D7" transform="translate(85,129)"/>
<path d="M0 0 C2.97 0 5.94 0 9 0 C5.81237635 2.12508244 3.73487777 2.5020163 0 3 C0 2.01 0 1.02 0 0 Z " fill="#4C3BC6" transform="translate(55,481)"/>
<path d="M0 0 C-2 2 -2 2 -5.625 2.125 C-6.73875 2.08375 -7.8525 2.0425 -9 2 C-5.945634 -1.054366 -3.9532319 -1.22686507 0 0 Z " fill="#4535C0" transform="translate(289,291)"/>
</svg>
